<?xml version="1.0" standalone="no"?><!DOCTYPE svg PUBLIC "-//W3C//DTD SVG 1.1//EN" "http://www.w3.org/Graphics/SVG/1.1/DTD/svg11.dtd"><svg t="1622612763152" class="icon" viewBox="0 0 1024 1024" version="1.1" xmlns="http://www.w3.org/2000/svg" p-id="8626" xmlns:xlink="http://www.w3.org/1999/xlink" width="32" height="32"><defs><style type="text/css"></style></defs><path d="M19.2 957.86666667c0 12.8 12.8 25.6 25.6 25.6h166.4c12.8 0 25.6-12.8 25.6-25.6V61.86666667c0-12.8-12.8-25.6-25.6-25.6H44.8C32 36.26666667 19.2 49.06666667 19.2 61.86666667v896zM83.2 202.66666667c12.8-6.4 38.4-12.8 51.2-12.8h6.4c12.8 0 38.4 6.4 51.2 12.8 0 0 12.8 6.4 12.8 32 0 19.2-12.8 25.6-12.8 25.6-12.8 6.4-38.4 6.4-51.2 6.4h-6.4c-19.2 0-38.4 0-51.2-6.4 0 0-12.8-6.4-12.8-32-6.4-19.2 12.8-25.6 12.8-25.6z m0 140.8c12.8-6.4 32-12.8 51.2-12.8h6.4c12.8 0 38.4 6.4 51.2 12.8 0 0 12.8 6.4 12.8 32 0 12.8-12.8 25.6-12.8 25.6-12.8 0-38.4 6.4-51.2 6.4h-6.4c-12.8 0-38.4-6.4-51.2-12.8 0 0-12.8-6.4-12.8-32-6.4-12.8 12.8-19.2 12.8-19.2z m0 134.4c12.8-6.4 38.4-12.8 51.2-12.8h6.4c12.8 0 38.4 6.4 51.2 12.8 0 0 12.8 6.4 12.8 32 0 19.2-12.8 25.6-12.8 25.6-12.8 6.4-38.4 12.8-51.2 12.8h-6.4c-12.8 0-38.4-6.4-51.2-12.8 0 0-12.8-6.4-12.8-32-6.4-19.2 12.8-25.6 12.8-25.6zM307.2 957.86666667c0 12.8 12.8 25.6 25.6 25.6h166.4c12.8 0 25.6-12.8 25.6-25.6V61.86666667c0-12.8-12.8-25.6-25.6-25.6H332.8c-12.8 0-25.6 12.8-25.6 25.6v896zM742.4 49.06666667c-6.4-12.8-19.2-19.2-32-19.2l-160 51.2c-12.8 6.4-25.6 19.2-19.2 32L793.6 970.66666667c6.4 12.8 19.2 19.2 32 19.2l160-51.2c12.8-6.4 19.2-19.2 19.2-32L742.4 49.06666667z" p-id="8627"></path></svg>