<?xml version="1.0" standalone="no"?><!DOCTYPE svg PUBLIC "-//W3C//DTD SVG 1.1//EN" "http://www.w3.org/Graphics/SVG/1.1/DTD/svg11.dtd"><svg t="1611228264766" class="icon" viewBox="0 0 1198 1024" version="1.1" xmlns="http://www.w3.org/2000/svg" p-id="2561" xmlns:xlink="http://www.w3.org/1999/xlink" width="233.984375" height="200"><defs><style type="text/css"></style></defs><path d="M0.239364 291.998832l3.948356-11.964714c7.956534-27.817959 35.89414-47.858854 67.600631-51.687562 27.877782-3.948355 55.695741 15.913069 71.78828 39.782672a80.103756 80.103756 0 0 1-11.964713 83.752994l-8.136005 7.717241c55.635918 35.89414 111.331659 67.600631 166.967576 99.366945 19.921248 11.964713 39.782672 23.929427 63.652275 39.782672 11.964713 7.956534 19.861424 4.008179 27.817959-7.956535l190.956827-345.959689c-27.817959-15.913069-43.731028-35.89414-47.858854-67.600631a72.207046 72.207046 0 0 1 23.929427-55.695741 74.061576 74.061576 0 0 1 111.331658 7.956535c31.826138 39.782672 19.921248 83.752994-27.817958 119.647134 15.913069 27.817959 31.826138 59.823567 47.858853 91.410411 47.858854 83.752994 91.470234 167.0274 135.201262 250.541099 11.964713 19.921248 15.913069 19.921248 35.894141 7.956535 71.788281-43.731028 143.157796-87.462055 210.758427-131.193083 3.948355-4.008179 7.956534-4.008179 11.964713-7.956535-15.853245-15.913069-23.929427-31.826138-23.929427-51.747385a74.181223 74.181223 0 0 1 59.823568-79.505521 69.694456 69.694456 0 0 1 83.752994 51.687562c0 4.008179 3.948355 4.008179 3.948355 7.956534v27.817959c-11.964713 39.782672-35.89414 59.823567-79.505521 59.823567 0 4.008179-4.008179 7.956534-4.008179 11.964714-39.782672 143.157796-83.752994 282.307414-123.236548 425.46521-4.008179 19.921248-11.964713 23.929427-31.826138 23.929427H238.81575c-19.861424 0-27.817959-3.948355-31.766314-23.929427-31.826138-115.280014-67.600631-230.619852-99.426769-345.959689-7.956534-31.766314-19.921248-63.592452-27.877782-95.717708-31.766314 0-55.635918-11.964713-71.788281-39.782672-4.008179 0-4.008179-7.956534-7.956534-15.913069z m596.500789 624.318747h333.994976a55.695741 55.695741 0 0 1 55.695741 47.858854 53.242975 53.242975 0 0 1-43.731028 59.823567H262.685354a59.823567 59.823567 0 0 1-55.456447-40.08179 56.652918 56.652918 0 0 1 19.861424-63.652276 64.011217 64.011217 0 0 1 35.89414-11.964713c111.331659 7.956534 222.723141 7.956534 334.0548 7.956534z" fill="#FEB333" p-id="2562"></path></svg>